PathFileType	4	(X/Y/Z)	E:\Qualisys_Data\Carbon_Farble_Plate\Data\Amateur_Runner\S2\T3\S2T3V13_c3d.trc
DataRate	CameraRate	NumFrames	NumMarkers	Units	OrigDataRate	OrigDataStartFrame	OrigNumFrames
200.000000	200.000000	4	39	mm	200.000000	195	312
Frame#	Time	LSHO			RSHO			LICST			RICST			LASIS			LHEEL			RASIS			LTROC			RTROC			SACR			LTH1			LSK4			LTH2			LTH3			RHM5			LSK2			LTH4			RTH1			LTOE			RTH2			RTH3			RTH4			LLEP			RLEP			LSK1			LSK3			RSK1			LHM5			RSK2			LFT1			RSK3			RSK4			LLME			RLME			RTOE			RHEEL			RFT1			RFT2			LFT2			
		X1	Y1	Z1	X2	Y2	Z2	X3	Y3	Z3	X4	Y4	Z4	X5	Y5	Z5	X6	Y6	Z6	X7	Y7	Z7	X8	Y8	Z8	X9	Y9	Z9	X10	Y10	Z10	X11	Y11	Z11	X12	Y12	Z12	X13	Y13	Z13	X14	Y14	Z14	X15	Y15	Z15	X16	Y16	Z16	X17	Y17	Z17	X18	Y18	Z18	X19	Y19	Z19	X20	Y20	Z20	X21	Y21	Z21	X22	Y22	Z22	X23	Y23	Z23	X24	Y24	Z24	X25	Y25	Z25	X26	Y26	Z26	X27	Y27	Z27	X28	Y28	Z28	X29	Y29	Z29	X30	Y30	Z30	X31	Y31	Z31	X32	Y32	Z32	X33	Y33	Z33	X34	Y34	Z34	X35	Y35	Z35	X36	Y36	Z36	X37	Y37	Z37	X38	Y38	Z38	X39	Y39	Z39	

196	0.975	555.146240234375	1444.990234375	-473.4849548339844	585.55615234375	1407.8740234375	-155.9800720214844	483.9357299804688	980.90478515625	-468.2636108398438	506.1837158203125	967.7709350585938	-164.9820556640625	545.1337280273438	933.7072143554688	-451.6467590332031	259.2256469726562	302.8053894042969	-368.9681091308594	565.0098876953125	922.3587036132812	-190.9825286865234	424.988525390625	852.9564208984375	-469.8711547851562	413.4479370117188	867.4388427734375	-166.7394409179688	404.4186096191406	1017.386596679688	-309.4470825195312	631.1065673828125	652.236083984375	-480.9786682128906	422.743896484375	398.6804504394531	-455.0331420898438	551.7581787109375	623.9302368164062	-484.266845703125	664.2257690429688	556.35888671875	-460.5108642578125	329.3689880371094	61.78369522094727	-212.9770660400391	504.2586669921875	454.5628051757812	-470.2377014160156	582.7461547851562	529.75439453125	-462.6989135742188	518.7131958007812	597.11328125	-169.8049468994141	404.983154296875	103.0967788696289	-411.8954467773438	441.8306579589844	606.8654174804688	-168.808837890625	505.3725891113281	498.6990966796875	-197.3337554931641	426.0220947265625	512.8553466796875	-189.4429779052734	625.66162109375	497.8450622558594	-465.0181579589844	448.9488525390625	472.8443603515625	-188.0975952148438	549.3182373046875	389.4962158203125	-464.54248046875	467.3549499511719	333.2185974121094	-453.2724914550781	424.1744384765625	347.623779296875	-196.0490112304688	345.0629577636719	142.47900390625	-461.8025512695312	357.3974914550781	389.9863891601562	-181.7371215820312	248.4369964599609	276.1662902832031	-338.3952331542969	369.0132751464844	262.540771484375	-210.1720733642578	303.8920593261719	307.0227355957031	-196.6218872070312	303.8291625976562	264.9988708496094	-427.1712951660156	235.1575775146484	132.3829040527344	-236.8722686767578	392.6220092773438	56.4268913269043	-272.7637023925781	158.9090728759766	129.1173706054688	-293.247802734375	164.4713592529297	99.13751220703124	-321.1842041015625	150.8598785400391	105.9995803833008	-272.1545104980469	234.9834289550781	281.375244140625	-389.4328002929688
197	0.98	568.468994140625	1449.492309570312	-473.6828308105469	603.8734741210938	1412.785766601562	-156.7569580078125	499.9823303222656	986.182373046875	-467.9046020507812	524.7163696289062	971.8749389648438	-165.0151214599609	561.5106201171875	938.6699829101562	-451.0883483886719	285.9000549316406	292.6527709960938	-368.4721374511719	582.2538452148438	925.67822265625	-191.0000152587891	441.9843444824219	858.1631469726562	-470.6878356933594	429.6517944335938	872.465576171875	-166.888916015625	421.4927062988281	1021.98828125	-307.8180541992188	649.9005126953125	659.1639404296875	-479.9739074707031	445.5608520507812	395.7126159667969	-454.182373046875	570.8321533203125	629.8114013671875	-484.20849609375	683.4931640625	563.6656494140625	-458.9800415039062	330.7062377929688	62.26217651367188	-212.1317291259766	524.629150390625	454.9440612792969	-468.8644714355469	602.450439453125	536.02783203125	-462.6912231445312	529.1412963867188	600.3688354492188	-169.9502868652344	441.4602966308594	100.2819519042969	-410.5157165527344	452.6461181640625	612.6966552734375	-167.5094604492188	512.7012939453125	503.0593872070312	-197.1512756347656	434.0989990234375	518.8929443359375	-188.3258056640625	644.8193969726562	504.126708984375	-463.9054870605469	455.8113098144531	478.4634094238281	-186.5194396972656	572.3982543945312	392.3041076660156	-463.677978515625	493.4669189453125	331.8550415039062	-452.2923889160156	429.5804138183594	353.2188720703125	-194.1514587402344	379.6422729492188	136.3208770751953	-460.7088317871094	362.5792541503906	396.3974304199219	-180.6627807617188	276.7838134765625	265.0784912109375	-338.250244140625	373.9111938476562	268.6816101074219	-208.0264129638672	308.6997375488281	313.7850036621094	-195.8276519775391	332.1068725585938	256.9202575683594	-426.2949523925781	239.2723236083984	138.6130218505859	-235.5916748046875	394.4924621582031	56.59175109863281	-271.6781005859375	163.1119079589844	135.4490814208984	-292.8555603027344	168.45751953125	105.6768493652344	-320.5484619140625	154.3114013671875	112.4964904785156	-272.1763610839844	262.7491149902344	269.5929260253906	-388.5627746582031
198	0.985	581.438720703125	1453.90478515625	-473.63232421875	621.6914672851562	1417.799194335938	-158.0683441162109	516.6499633789062	991.5341796875	-467.6976928710938	542.7383422851562	975.4573364257812	-165.2420806884766	577.467529296875	943.7755737304688	-450.8623352050781	313.134521484375	281.9770202636719	-367.2934265136719	599.73828125	929.0611572265624	-191.0496368408203	458.8757934570312	863.7268676757812	-471.6006469726562	446.1587219238281	877.6651000976562	-167.0287933349609	437.9092712402344	1026.162475585938	-306.7838134765625	668.5352172851562	666.0399169921875	-478.9622192382812	468.5021667480469	392.5321350097656	-453.2218017578125	590.0939331054688	635.7925415039062	-484.4073486328125	703.0594482421875	570.6594848632812	-457.1035766601562	332.1331176757812	62.65574264526367	-211.3267059326172	544.9445190429688	455.1411437988281	-468.2056884765625	622.6083374023438	542.154541015625	-462.7598571777344	540.4906616210938	604.2999267578125	-169.8547515869141	477.9089660644531	97.99993896484376	-409.179931640625	464.3171081542969	618.6013793945312	-166.4182586669922	520.935302734375	507.6326904296875	-196.9616394042969	442.9465942382812	525.2907104492188	-186.9673767089844	664.0379028320312	510.1842346191406	-462.4461364746094	462.8974914550781	483.9006042480469	-185.7528228759766	595.0040283203125	394.5359191894531	-462.3662414550781	518.9946899414062	330.6526794433594	-451.4187316894531	435.2634582519531	359.1778259277344	-192.3809356689453	414.4530944824219	130.6908416748047	-459.70703125	368.4559020996094	402.6378173828125	-179.2572021484375	305.3022155761719	254.1135559082031	-336.6269836425781	379.3715209960938	274.8240661621094	-205.8521423339844	314.7206726074219	320.3123779296875	-195.0080413818359	361.1530151367188	248.8848114013672	-425.5214538574219	243.8231811523438	145.0092620849609	-234.1342468261719	395.1444702148438	56.24707412719727	-271.0891418457031	167.9020843505859	142.1687927246094	-292.2358703613281	172.4827423095703	112.7632217407227	-320.3271789550781	158.0670928955078	119.2370223999023	-271.5630493164062	290.7794799804688	257.9736328125	-387.7231750488281
199	0.99	595.1600341796875	1458.735717773438	-473.659912109375	639.2393188476562	1422.795166015625	-158.8657989501953	532.4468383789062	997.0233764648438	-467.3714599609375	560.701171875	979.2598876953124	-165.5491485595703	593.8749389648438	948.8850708007812	-450.3925170898438	340.5447387695312	271.1646423339844	-366.4731750488281	616.942138671875	932.5003051757812	-191.3596954345703	475.8338928222656	868.9918823242188	-472.5613403320312	462.5699157714844	882.8521728515625	-166.9371643066406	454.9251098632812	1030.847290039062	-304.9908447265625	687.1392822265625	672.2979125976562	-476.5241394042969	491.23193359375	388.7533569335938	-452.5431518554688	609.0103759765625	641.6348266601562	-484.4405822753906	721.5704956054688	577.3535766601562	-456.1736450195312	333.7833557128906	63.27920150756836	-210.8377227783203	565.327392578125	455.1330261230469	-467.7001037597656	641.9140014648438	547.9262084960938	-462.6886901855469	552.01904296875	608.008056640625	-169.4937591552734	514.6156005859375	95.6137237548828	-407.9017028808594	476.1343994140625	624.3502197265625	-165.8872985839844	529.9649047851562	512.0946044921875	-195.8016510009766	452.28173828125	531.7116088867188	-185.5918579101562	682.7145385742188	516.0267944335938	-461.2923583984375	471.087158203125	489.4515686035156	-184.3027801513672	617.9188842773438	396.8682861328125	-461.7900695800781	544.68017578125	329.9430541992188	-450.54638671875	441.5867614746094	365.7672729492188	-190.3431854248047	449.3467102050781	125.0758285522461	-458.5382385253906	374.8189392089844	409.0475769042969	-178.2038269042969	334.1473999023438	243.3097991943359	-335.7544250488281	385.2155456542969	281.0265808105469	-203.8188629150391	320.6907653808594	326.7723083496094	-194.0576171875	390.7611083984375	240.6481475830078	-424.385009765625	249.0419464111328	150.4165344238281	-233.0894622802734	396.9123229980469	56.21455383300781	-269.866455078125	173.3772735595703	149.6757507324219	-291.0675659179688	176.6873474121094	120.4694213867188	-319.6351013183594	162.7985534667969	126.8339157104492	-270.7340698242188	319.423095703125	246.4900054931641	-386.8277893066406
